<svg width="20" height="20" viewBox="0 0 20 20" fill="none" xmlns="http://www.w3.org/2000/svg">
<path fill-rule="evenodd" clip-rule="evenodd" d="M8.35457 7.64062C8.15932 7.44534 7.84274 7.44531 7.64746 7.64055C7.45218 7.83579 7.45214 8.15237 7.64739 8.34766L9.29229 9.9929L7.64954 11.6357C7.45427 11.8309 7.45427 12.1475 7.64954 12.3428C7.8448 12.538 8.16138 12.538 8.35664 12.3428L9.99932 10.7001L11.6441 12.3452C11.8393 12.5404 12.1559 12.5405 12.3512 12.3452C12.5464 12.15 12.5465 11.8334 12.3512 11.6381L10.7064 9.99297L12.35 8.34942C12.5452 8.15416 12.5452 7.83758 12.35 7.64232C12.1547 7.44705 11.8381 7.44705 11.6429 7.64232L9.99939 9.28579L8.35457 7.64062Z" fill="#130F26"/>
<path opacity="0.4" fill-rule="evenodd" clip-rule="evenodd" d="M13.612 2.29187H6.38782C3.87033 2.29187 2.29199 4.07437 2.29199 6.59687V13.4035C2.29199 15.926 3.86283 17.7085 6.38782 17.7085H13.6112C16.137 17.7085 17.7087 15.926 17.7087 13.4035V6.59687C17.7087 4.07437 16.137 2.29187 13.612 2.29187Z" stroke="#130F26" stroke-linecap="round" stroke-linejoin="round"/>
</svg>
