<svg width="30" height="30" viewBox="0 0 30 30" fill="none" xmlns="http://www.w3.org/2000/svg">
<g clip-path="url(#clip0)">
<path d="M13.6194 9.2492C13.785 9.59647 14.0933 10.2427 14.9583 10.2427C15.8233 10.2427 16.1316 9.5964 16.2973 9.24913C16.3178 9.20604 16.7282 8.39577 16.7282 8.39577C17.8759 6.1403 18.5873 4.55618 18.5873 3.62888C18.5872 1.62792 16.9593 0 14.9583 0C12.9572 0 11.3293 1.62792 11.3293 3.62888C11.3293 4.55596 12.0407 6.14015 13.1886 8.39584C13.1886 8.39584 13.5988 9.20612 13.6194 9.2492ZM14.9583 1.28831C16.249 1.28831 17.2989 2.33828 17.2989 3.62888C17.2989 4.4335 16.0944 6.80063 15.58 7.81145C15.58 7.81145 15.0323 8.90844 14.9955 8.95225C14.9802 8.95432 14.9362 8.95432 14.921 8.95225C14.8841 8.90844 14.3366 7.81145 14.3366 7.81145C13.8222 6.80056 12.6175 4.43329 12.6175 3.62888C12.6176 2.33828 13.6676 1.28831 14.9583 1.28831ZM12.0056 15.9473C12.0056 17.5755 13.3302 18.9001 14.9584 18.9001C16.5866 18.9001 17.9111 17.5755 17.9111 15.9473C17.9111 14.3192 16.5865 12.9946 14.9584 12.9946C13.3302 12.9946 12.0056 14.3191 12.0056 15.9473ZM16.6228 15.9473C16.6228 16.8651 15.8761 17.6118 14.9584 17.6118C14.0406 17.6118 13.2939 16.8651 13.2939 15.9473C13.2939 15.0296 14.0406 14.2829 14.9584 14.2829C15.8762 14.2829 16.6228 15.0296 16.6228 15.9473ZM22.1615 19.7574C20.1605 19.7574 18.5326 21.3852 18.5326 23.3862C18.5326 24.313 19.2439 25.8973 20.3917 28.1531C20.3917 28.1531 20.8021 28.9633 20.8227 29.0063C20.9883 29.3536 21.2966 30.0001 22.1616 30.0001C23.0266 30.0001 23.3349 29.3537 23.5006 29.0064C23.5211 28.9633 23.9315 28.1531 23.9315 28.1531C25.0792 25.8975 25.7905 24.3133 25.7905 23.3862C25.7905 21.3852 24.1625 19.7574 22.1615 19.7574ZM22.7833 27.5688C22.7833 27.5688 22.2356 28.6658 22.1987 28.7096C22.1835 28.7115 22.1396 28.7117 22.1243 28.7096C22.0874 28.6658 21.5398 27.5689 21.5398 27.5689C21.0254 26.5579 19.8208 24.1903 19.8208 23.3862C19.8208 22.0957 20.8708 21.0457 22.1614 21.0457C23.4521 21.0457 24.5021 22.0957 24.5021 23.3862C24.5021 24.1905 23.2976 26.558 22.7833 27.5688ZM28.4028 15.9473C28.4028 17.471 28.1499 18.9661 27.6509 20.391C27.558 20.6564 27.309 20.8225 27.0429 20.8225C26.9723 20.8225 26.9005 20.8108 26.83 20.7861C26.4943 20.6685 26.3174 20.3011 26.4349 19.9653C26.8858 18.6775 27.1144 17.3256 27.1144 15.9473C27.1144 11.2545 24.4909 7.06323 20.2678 5.0093C19.9478 4.85371 19.8146 4.46814 19.9702 4.14828C20.1258 3.82835 20.5112 3.6953 20.8313 3.85076C23.0666 4.93795 24.9568 6.62212 26.2973 8.72114C27.6747 10.8779 28.4028 13.3767 28.4028 15.9473ZM14.2372 3.62895C14.2372 3.27316 14.5255 2.9848 14.8813 2.9848H15.035C15.3908 2.9848 15.6792 3.27316 15.6792 3.62895C15.6792 3.98474 15.3908 4.27311 15.035 4.27311H14.8813C14.5256 4.27311 14.2372 3.98474 14.2372 3.62895ZM4.66991 17.5889C4.83553 17.9362 5.14387 18.5826 6.00889 18.5826C6.87399 18.5826 7.18226 17.9363 7.34788 17.589C7.36842 17.5459 7.77896 16.7356 7.77896 16.7356C8.92656 14.4802 9.63785 12.896 9.63785 11.9688C9.63785 9.96786 8.00992 8.34001 6.00889 8.34001C4.00786 8.34001 2.37994 9.96786 2.37994 11.9688C2.37994 12.896 3.0913 14.4802 4.23911 16.7356C4.23919 16.7356 4.64944 17.5458 4.66991 17.5889ZM6.00897 9.62832C7.29957 9.62832 8.34961 10.6783 8.34961 11.9688C8.34961 12.7733 7.14511 15.1405 6.63086 16.1514C6.63086 16.1514 6.08304 17.2484 6.04625 17.2922C6.03094 17.2943 5.98706 17.2943 5.97175 17.2922C5.93489 17.2484 5.38743 16.1514 5.38743 16.1514C4.87303 15.1406 3.66832 12.7734 3.66832 11.9688C3.66832 10.6783 4.71829 9.62832 6.00897 9.62832ZM22.8825 23.3862C22.8825 23.742 22.5941 24.0304 22.2383 24.0304H22.0846C21.7288 24.0304 21.4405 23.742 21.4405 23.3862C21.4405 23.0305 21.7288 22.7421 22.0846 22.7421H22.2383C22.5941 22.7421 22.8825 23.0305 22.8825 23.3862ZM18.7153 28.2045C18.8021 28.5494 18.5928 28.8995 18.2478 28.9863C17.1782 29.2553 16.0714 29.3917 14.9584 29.3917C8.11528 29.3917 2.37307 24.2711 1.60159 17.4807C1.56143 17.1273 1.81545 16.8082 2.16887 16.768C2.52223 16.7276 2.84144 16.9818 2.88159 17.3353C3.57907 23.4741 8.77096 28.1034 14.9584 28.1034C15.9655 28.1034 16.9665 27.9801 17.9335 27.7369C18.2786 27.6506 18.6286 27.8595 18.7153 28.2045ZM5.28787 11.969C5.28787 11.6132 5.57624 11.3248 5.93202 11.3248H6.08569C6.44148 11.3248 6.72985 11.6132 6.72985 11.969C6.72985 12.3248 6.44148 12.6131 6.08569 12.6131H5.93202C5.57631 12.6131 5.28787 12.3247 5.28787 11.969ZM5.82416 6.9573C5.58339 6.69542 5.60057 6.28788 5.86246 6.04711C6.82697 5.16047 7.9113 4.42141 9.08538 3.8504C9.40524 3.6948 9.79073 3.828 9.9464 4.14793C10.102 4.46786 9.9688 4.85335 9.64887 5.00895C8.58723 5.52527 7.60668 6.19369 6.73428 6.99559C6.61053 7.10932 6.45429 7.1655 6.29855 7.1655C6.12463 7.1655 5.95121 7.09551 5.82416 6.9573Z" fill="#08090E"/>
<path d="M13.6193 9.2492C13.7849 9.59647 14.0932 10.2427 14.9582 10.2427C15.8232 10.2427 16.1316 9.5964 16.2972 9.24913C16.3177 9.20604 16.7281 8.39577 16.7281 8.39577C17.8759 6.1403 18.5872 4.55618 18.5872 3.62888C18.5872 1.62792 16.9593 0 14.9582 0C12.9572 0 11.3293 1.62792 11.3293 3.62888C11.3293 4.55596 12.0406 6.14015 13.1885 8.39584C13.1885 8.39584 13.5988 9.20611 13.6193 9.2492ZM14.9582 1.28831C16.2489 1.28831 17.2989 2.33828 17.2989 3.62888C17.2989 4.4335 16.0943 6.80063 15.5799 7.81145C15.5799 7.81145 15.0322 8.90845 14.9954 8.95225C14.9801 8.95432 14.9362 8.95432 14.9209 8.95225C14.8841 8.90845 14.3365 7.81145 14.3365 7.81145C13.8221 6.80056 12.6174 4.43329 12.6174 3.62888C12.6176 2.33828 13.6676 1.28831 14.9582 1.28831ZM22.1614 19.7574C20.1604 19.7574 18.5325 21.3852 18.5325 23.3862C18.5325 24.313 19.2439 25.8973 20.3917 28.1531C20.3917 28.1531 20.8021 28.9633 20.8226 29.0063C20.9882 29.3536 21.2966 30.0001 22.1615 30.0001C23.0265 30.0001 23.3349 29.3537 23.5005 29.0064C23.521 28.9633 23.9314 28.1531 23.9314 28.1531C25.0791 25.8975 25.7904 24.3133 25.7904 23.3862C25.7904 21.3852 24.1625 19.7574 22.1614 19.7574ZM22.7832 27.5688C22.7832 27.5688 22.2355 28.6658 22.1987 28.7096C22.1835 28.7115 22.1395 28.7117 22.1242 28.7096C22.0874 28.6658 21.5398 27.5689 21.5398 27.5689C21.0254 26.5579 19.8207 24.1903 19.8207 23.3862C19.8207 22.0957 20.8707 21.0457 22.1614 21.0457C23.452 21.0457 24.502 22.0957 24.502 23.3862C24.5021 24.1905 23.2975 26.558 22.7832 27.5688ZM14.2371 3.62895C14.2371 3.27316 14.5255 2.9848 14.8813 2.9848H15.0349C15.3907 2.9848 15.6791 3.27316 15.6791 3.62895C15.6791 3.98474 15.3907 4.27311 15.0349 4.27311H14.8813C14.5256 4.27311 14.2371 3.98474 14.2371 3.62895ZM4.66985 17.5889C4.83547 17.9362 5.14381 18.5826 6.00884 18.5826C6.87394 18.5826 7.1822 17.9363 7.34782 17.589C7.36836 17.5459 7.7789 16.7356 7.7789 16.7356C8.9265 14.4802 9.63779 12.896 9.63779 11.9688C9.63779 9.96786 8.00987 8.34001 6.00884 8.34001C4.00781 8.34001 2.37988 9.96786 2.37988 11.9688C2.37988 12.896 3.09124 14.4802 4.23906 16.7356C4.23906 16.7356 4.64938 17.5458 4.66985 17.5889ZM6.00891 9.62832C7.29951 9.62832 8.34955 10.6783 8.34955 11.9688C8.34955 12.7733 7.14505 15.1405 6.6308 16.1514C6.6308 16.1514 6.08299 17.2484 6.0462 17.2922C6.03088 17.2943 5.98701 17.2943 5.97169 17.2922C5.93483 17.2484 5.38737 16.1514 5.38737 16.1514C4.87298 15.1406 3.66826 12.7734 3.66826 11.9688C3.66826 10.6783 4.71824 9.62832 6.00891 9.62832ZM22.8824 23.3862C22.8824 23.742 22.594 24.0304 22.2382 24.0304H22.0846C21.7288 24.0304 21.4404 23.742 21.4404 23.3862C21.4404 23.0305 21.7288 22.7421 22.0846 22.7421H22.2382C22.594 22.7421 22.8824 23.0305 22.8824 23.3862ZM5.28781 11.969C5.28781 11.6132 5.57618 11.3248 5.93197 11.3248H6.08563C6.44142 11.3248 6.72979 11.6132 6.72979 11.969C6.72979 12.3248 6.44142 12.6131 6.08563 12.6131H5.93197C5.57625 12.6131 5.28781 12.3247 5.28781 11.969Z" fill="white"/>
<path d="M13.6193 9.2492C13.7849 9.59647 14.0932 10.2427 14.9582 10.2427C15.8232 10.2427 16.1316 9.5964 16.2972 9.24913C16.3177 9.20604 16.7281 8.39577 16.7281 8.39577C17.8759 6.1403 18.5872 4.55618 18.5872 3.62888C18.5872 1.62792 16.9593 0 14.9582 0C12.9572 0 11.3293 1.62792 11.3293 3.62888C11.3293 4.55596 12.0406 6.14015 13.1885 8.39584C13.1885 8.39584 13.5988 9.20611 13.6193 9.2492ZM14.9582 1.28831C16.2489 1.28831 17.2989 2.33828 17.2989 3.62888C17.2989 4.4335 16.0943 6.80063 15.5799 7.81145C15.5799 7.81145 15.0322 8.90845 14.9954 8.95225C14.9801 8.95432 14.9362 8.95432 14.9209 8.95225C14.8841 8.90845 14.3365 7.81145 14.3365 7.81145C13.8221 6.80056 12.6174 4.43329 12.6174 3.62888C12.6176 2.33828 13.6676 1.28831 14.9582 1.28831ZM22.1614 19.7574C20.1604 19.7574 18.5325 21.3852 18.5325 23.3862C18.5325 24.313 19.2439 25.8973 20.3917 28.1531C20.3917 28.1531 20.8021 28.9633 20.8226 29.0063C20.9882 29.3536 21.2966 30.0001 22.1615 30.0001C23.0265 30.0001 23.3349 29.3537 23.5005 29.0064C23.521 28.9633 23.9314 28.1531 23.9314 28.1531C25.0791 25.8975 25.7904 24.3133 25.7904 23.3862C25.7904 21.3852 24.1625 19.7574 22.1614 19.7574ZM22.7832 27.5688C22.7832 27.5688 22.2355 28.6658 22.1987 28.7096C22.1835 28.7115 22.1395 28.7117 22.1242 28.7096C22.0874 28.6658 21.5398 27.5689 21.5398 27.5689C21.0254 26.5579 19.8207 24.1903 19.8207 23.3862C19.8207 22.0957 20.8707 21.0457 22.1614 21.0457C23.452 21.0457 24.502 22.0957 24.502 23.3862C24.5021 24.1905 23.2975 26.558 22.7832 27.5688ZM14.2371 3.62895C14.2371 3.27316 14.5255 2.9848 14.8813 2.9848H15.0349C15.3907 2.9848 15.6791 3.27316 15.6791 3.62895C15.6791 3.98474 15.3907 4.27311 15.0349 4.27311H14.8813C14.5256 4.27311 14.2371 3.98474 14.2371 3.62895ZM4.66985 17.5889C4.83547 17.9362 5.14381 18.5826 6.00884 18.5826C6.87394 18.5826 7.1822 17.9363 7.34782 17.589C7.36836 17.5459 7.7789 16.7356 7.7789 16.7356C8.9265 14.4802 9.63779 12.896 9.63779 11.9688C9.63779 9.96786 8.00987 8.34001 6.00884 8.34001C4.00781 8.34001 2.37988 9.96786 2.37988 11.9688C2.37988 12.896 3.09124 14.4802 4.23906 16.7356C4.23906 16.7356 4.64938 17.5458 4.66985 17.5889ZM6.00891 9.62832C7.29951 9.62832 8.34955 10.6783 8.34955 11.9688C8.34955 12.7733 7.14505 15.1405 6.6308 16.1514C6.6308 16.1514 6.08299 17.2484 6.0462 17.2922C6.03088 17.2943 5.98701 17.2943 5.97169 17.2922C5.93483 17.2484 5.38737 16.1514 5.38737 16.1514C4.87298 15.1406 3.66826 12.7734 3.66826 11.9688C3.66826 10.6783 4.71824 9.62832 6.00891 9.62832ZM22.8824 23.3862C22.8824 23.742 22.594 24.0304 22.2382 24.0304H22.0846C21.7288 24.0304 21.4404 23.742 21.4404 23.3862C21.4404 23.0305 21.7288 22.7421 22.0846 22.7421H22.2382C22.594 22.7421 22.8824 23.0305 22.8824 23.3862ZM5.28781 11.969C5.28781 11.6132 5.57618 11.3248 5.93197 11.3248H6.08563C6.44142 11.3248 6.72979 11.6132 6.72979 11.969C6.72979 12.3248 6.44142 12.6131 6.08563 12.6131H5.93197C5.57625 12.6131 5.28781 12.3247 5.28781 11.969Z" fill="#08090E" fill-opacity="0.4"/>
</g>
<defs>
<clipPath id="clip0">
<rect width="30" height="30" fill="white"/>
</clipPath>
</defs>
</svg>
