<svg width="30" height="30" viewBox="0 0 30 30" fill="none" xmlns="http://www.w3.org/2000/svg">
<path d="M20.3918 25.8456L20.063 28.1337C20.0131 29.1059 18.5489 29.4719 18.0622 29.5936C17.014 29.8557 15.63 30 14.1651 30C12.7001 30 11.3161 29.8556 10.2678 29.5936C9.78108 29.472 8.31692 29.106 8.26708 28.1338C8.26708 28.1338 5.11295 6.13287 5.11328 6.12329C5.13105 5.08084 6.77636 3.20632 8.7219 2.01643C10.8127 0.737613 13.8887 -0.355275 15.212 0.108796C15.6608 0.266197 15.8487 0.557979 15.9272 0.774996C15.9633 0.87488 15.9719 0.9827 15.9519 1.08704L15.799 1.88382C15.7377 2.204 15.4282 2.41361 15.1082 2.35235C14.788 2.29097 14.5783 1.98167 14.6397 1.66149L14.7286 1.19762C14.4814 1.15263 13.903 1.15466 12.8596 1.45523C11.7088 1.78689 10.425 2.35845 9.33773 3.02354C7.44977 4.17821 6.3618 5.69883 6.29628 6.11726L6.3014 6.15267C6.37918 6.30338 6.89585 6.72994 8.51315 7.10908C10.0437 7.46789 12.0509 7.66543 14.165 7.66543C16.2791 7.66543 18.2862 7.46783 19.8168 7.10908C21.3785 6.74299 21.9139 6.33263 22.0189 6.1692C21.7194 5.7938 19.9827 4.98849 17.2244 4.54797C14.6162 4.13138 12.9785 4.34203 12.5988 4.56148V5.98261C12.5988 6.30863 12.3345 6.57287 12.0085 6.57287C11.6825 6.57287 11.4182 6.30863 11.4182 5.98261V4.44435C11.4182 4.16378 11.5467 3.89974 11.78 3.70076C12.6668 2.94438 15.27 3.04026 17.4106 3.38215C18.8722 3.61556 20.2519 3.97962 21.2954 4.40716C22.5953 4.93977 23.2065 5.48575 23.2166 6.12408C23.2169 6.13333 22.7975 9.10139 22.7975 9.10139C22.7511 9.42406 22.4521 9.6479 22.1293 9.60173C21.8067 9.55536 21.5827 9.25623 21.629 8.93356L21.8048 7.70957C19.9002 8.5756 16.4805 8.84594 14.165 8.84594C11.8495 8.84594 8.42966 8.5756 6.52504 7.70957L9.44017 27.9986C9.44017 27.9988 9.44024 27.9992 9.4403 27.9994C9.72054 28.2913 11.3602 28.8195 14.165 28.8195C16.9697 28.8195 18.6094 28.2913 18.8896 27.9994C18.8897 27.9992 18.8897 27.9988 18.8897 27.9985L19.2232 25.6777C19.2697 25.355 19.5687 25.1313 19.8915 25.1774C20.2142 25.2237 20.4382 25.5229 20.3918 25.8456ZM22.3034 15.0921C22.3034 16.3259 21.2996 17.3297 20.0658 17.3297C18.832 17.3297 17.8281 16.3259 17.8281 15.0921C17.8281 13.8582 18.8319 12.8544 20.0658 12.8544C21.2996 12.8544 22.3034 13.8582 22.3034 15.0921ZM21.1229 15.0921C21.1229 14.5092 20.6487 14.0349 20.0658 14.0349C19.4829 14.0349 19.0086 14.5092 19.0086 15.0921C19.0086 15.675 19.4828 16.1492 20.0658 16.1492C20.6487 16.1492 21.1229 15.675 21.1229 15.0921ZM14.5249 19.6435C14.8508 19.6382 15.1108 19.3698 15.1056 19.0438C15.1003 18.7178 14.8343 18.4584 14.5058 18.4631C14.0043 18.4713 13.4894 18.4675 12.9865 18.4512L13.5872 14.27C13.6891 14.2717 13.7911 14.2729 13.8934 14.2737C13.895 14.2737 13.8965 14.2737 13.8981 14.2737C14.222 14.2737 14.4857 14.0125 14.4882 13.6881C14.4908 13.3621 14.2286 13.0958 13.9026 13.0932C13.8538 13.0929 13.805 13.0924 13.7564 13.0918L14.1023 10.6846C14.1486 10.3619 13.9246 10.0628 13.6019 10.0164C13.2794 9.97011 12.9801 10.194 12.9338 10.5168L12.5689 13.056C11.593 13.0085 10.6608 12.9176 9.81308 12.7867L10.1564 10.3972C10.2028 10.0745 9.97875 9.77539 9.65607 9.72902C9.33373 9.68285 9.03428 9.90669 8.98791 10.2294L8.45628 13.9295C8.40992 14.2521 8.63389 14.5513 8.95662 14.5976C9.27936 14.6437 9.57849 14.42 9.62479 14.0973L9.64519 13.9552C10.4974 14.0863 11.4283 14.1788 12.4003 14.2295L11.8027 18.389C11.2077 18.3454 10.6331 18.284 10.0931 18.2057C9.77039 18.1593 9.471 18.3827 9.4243 18.7053C9.37754 19.0279 9.60118 19.3273 9.92379 19.3741C10.466 19.4526 11.0404 19.5149 11.6345 19.5602L11.047 23.6485C10.9141 23.6352 10.7822 23.6209 10.6516 23.6055C10.3284 23.5673 10.0346 23.7991 9.99652 24.1229C9.95848 24.4467 10.1901 24.74 10.5139 24.778C10.6347 24.7921 10.7564 24.8055 10.8791 24.818L10.6018 26.7479C10.5554 27.0706 10.7794 27.3697 11.1021 27.4161C11.4248 27.4621 11.724 27.2385 11.7703 26.9157L12.0583 24.9114C12.6113 24.943 13.1781 24.959 13.7545 24.959C14.249 24.959 14.7359 24.9473 15.2129 24.9241L14.9396 26.8261C14.8932 27.1487 15.1172 27.4479 15.4399 27.4942C15.4684 27.4983 15.4966 27.5003 15.5246 27.5003C15.8133 27.5003 16.0658 27.2881 16.1081 26.9939L16.4177 24.8388C16.6331 24.8186 16.8456 24.796 17.0554 24.7707C17.3791 24.7318 17.6099 24.4379 17.571 24.1142C17.532 23.7906 17.2382 23.5595 16.9145 23.5987C16.8074 23.6115 16.6994 23.6237 16.5906 23.6353L16.7795 22.3211C16.8258 21.9984 16.6019 21.6993 16.2791 21.6529C15.9567 21.6068 15.6573 21.8306 15.611 22.1533L15.384 23.7329C14.8539 23.7632 14.3094 23.7785 13.7545 23.7785C13.2355 23.7785 12.7253 23.7651 12.2268 23.7384L12.8176 19.6265C13.3823 19.6473 13.9611 19.6526 14.5249 19.6435ZM24.8868 15.0921C24.8868 16.4767 23.5447 19.2302 22.2867 21.7024C22.2867 21.7024 21.7024 22.8561 21.6723 22.9192C21.4397 23.4069 21.0883 24.144 20.0657 24.144C19.0431 24.144 18.6917 23.4069 18.4591 22.9192C18.4291 22.8561 17.8446 21.7023 17.8446 21.7023C16.5867 19.2302 15.2446 16.4767 15.2446 15.0921C15.2446 12.4338 17.4074 10.2711 20.0657 10.2711C22.7241 10.271 24.8868 12.4337 24.8868 15.0921ZM23.7063 15.0921C23.7063 13.0847 22.0732 11.4516 20.0658 11.4516C18.0583 11.4516 16.4252 13.0847 16.4252 15.0921C16.4252 16.3096 18.0946 19.5904 18.8969 21.167C18.8969 21.167 19.491 22.3402 19.5248 22.4112C19.7611 22.9067 19.8167 22.9634 20.0659 22.9634C20.3149 22.9634 20.3705 22.9067 20.6068 22.4111C20.6406 22.3401 21.2347 21.167 21.2347 21.167C22.0369 19.5903 23.7063 16.3096 23.7063 15.0921Z" fill="#08090E"/>
<path d="M22.3034 15.0921C22.3034 16.3259 21.2997 17.3297 20.0658 17.3297C18.832 17.3297 17.8281 16.3259 17.8281 15.0921C17.8281 13.8583 18.8319 12.8544 20.0658 12.8544C21.2997 12.8544 22.3034 13.8582 22.3034 15.0921ZM21.1229 15.0921C21.1229 14.5092 20.6487 14.0349 20.0658 14.0349C19.4829 14.0349 19.0086 14.5092 19.0086 15.0921C19.0086 15.675 19.4828 16.1492 20.0658 16.1492C20.6487 16.1492 21.1229 15.675 21.1229 15.0921ZM24.8868 15.0921C24.8868 16.4767 23.5447 19.2302 22.2868 21.7024C22.2868 21.7024 21.7024 22.8561 21.6723 22.9192C21.4397 23.4069 21.0883 24.144 20.0658 24.144C19.0431 24.144 18.6917 23.4069 18.4592 22.9193C18.4291 22.8562 17.8446 21.7023 17.8446 21.7023C16.5867 19.2302 15.2446 16.4767 15.2446 15.0921C15.2446 12.4338 17.4074 10.2711 20.0658 10.2711C22.7241 10.271 24.8868 12.4337 24.8868 15.0921ZM23.7063 15.0921C23.7063 13.0847 22.0732 11.4516 20.0658 11.4516C18.0584 11.4516 16.4252 13.0847 16.4252 15.0921C16.4252 16.3096 18.0946 19.5904 18.8969 21.1671C18.8969 21.1671 19.491 22.3402 19.5248 22.4112C19.7611 22.9067 19.8167 22.9635 20.0659 22.9635C20.3149 22.9635 20.3705 22.9067 20.6068 22.4111C20.6407 22.3402 21.2347 21.167 21.2347 21.167C22.0369 19.5904 23.7063 16.3096 23.7063 15.0921Z" fill="white"/>
<path d="M22.3034 15.0921C22.3034 16.3259 21.2997 17.3297 20.0658 17.3297C18.832 17.3297 17.8281 16.3259 17.8281 15.0921C17.8281 13.8583 18.8319 12.8544 20.0658 12.8544C21.2997 12.8544 22.3034 13.8582 22.3034 15.0921ZM21.1229 15.0921C21.1229 14.5092 20.6487 14.0349 20.0658 14.0349C19.4829 14.0349 19.0086 14.5092 19.0086 15.0921C19.0086 15.675 19.4828 16.1492 20.0658 16.1492C20.6487 16.1492 21.1229 15.675 21.1229 15.0921ZM24.8868 15.0921C24.8868 16.4767 23.5447 19.2302 22.2868 21.7024C22.2868 21.7024 21.7024 22.8561 21.6723 22.9192C21.4397 23.4069 21.0883 24.144 20.0658 24.144C19.0431 24.144 18.6917 23.4069 18.4592 22.9193C18.4291 22.8562 17.8446 21.7023 17.8446 21.7023C16.5867 19.2302 15.2446 16.4767 15.2446 15.0921C15.2446 12.4338 17.4074 10.2711 20.0658 10.2711C22.7241 10.271 24.8868 12.4337 24.8868 15.0921ZM23.7063 15.0921C23.7063 13.0847 22.0732 11.4516 20.0658 11.4516C18.0584 11.4516 16.4252 13.0847 16.4252 15.0921C16.4252 16.3096 18.0946 19.5904 18.8969 21.1671C18.8969 21.1671 19.491 22.3402 19.5248 22.4112C19.7611 22.9067 19.8167 22.9635 20.0659 22.9635C20.3149 22.9635 20.3705 22.9067 20.6068 22.4111C20.6407 22.3402 21.2347 21.167 21.2347 21.167C22.0369 19.5904 23.7063 16.3096 23.7063 15.0921Z" fill="#08090E" fill-opacity="0.4"/>
</svg>
