<svg width="30" height="30" viewBox="0 0 30 30" fill="none" xmlns="http://www.w3.org/2000/svg">
<path d="M17.3404 3.00588C17.3404 2.64369 17.634 2.35013 17.9961 2.35013H18.1523C18.5145 2.35013 18.808 2.64369 18.808 3.00588C18.808 3.36807 18.5145 3.66163 18.1523 3.66163H17.9961C17.634 3.66163 17.3404 3.36807 17.3404 3.00588ZM18.2453 18.2496C18.2453 18.6118 18.5388 18.9053 18.901 18.9053H19.0571C19.4193 18.9053 19.7129 18.6118 19.7129 18.2496C19.7129 17.8874 19.4193 17.5938 19.0571 17.5938H18.901C18.5389 17.5938 18.2453 17.8874 18.2453 18.2496ZM18.9791 15.2437C20.6365 15.2437 21.9849 16.5921 21.9849 18.2496C21.9849 19.6818 20.978 20.8833 19.6349 21.1834V23.1746C19.6349 23.5368 19.3413 23.8303 18.9791 23.8303C18.6169 23.8303 18.3234 23.5368 18.3234 23.1746V21.1834C16.9802 20.8834 15.9732 19.6819 15.9732 18.2496C15.9732 16.5921 17.3216 15.2437 18.9791 15.2437ZM18.9791 16.5552C18.0448 16.5552 17.2847 17.3153 17.2847 18.2496C17.2847 19.1838 18.0448 19.9439 18.9791 19.9439C19.9133 19.9439 20.6734 19.1838 20.6734 18.2496C20.6734 17.3153 19.9133 16.5552 18.9791 16.5552ZM8.41791 9.52555C8.41791 7.86811 9.76642 6.51967 11.4239 6.51967C13.0815 6.51967 14.4299 7.86811 14.4299 9.52555C14.4299 10.9578 13.4229 12.1593 12.0797 12.4594V14.4506C12.0797 14.8128 11.7861 15.1063 11.4239 15.1063C11.0617 15.1063 10.7682 14.8128 10.7682 14.4506V12.4594C9.42507 12.1594 8.41791 10.9579 8.41791 9.52555ZM9.72941 9.52555C9.72941 10.4598 10.4896 11.2199 11.4239 11.2199C12.3582 11.2199 13.1184 10.4598 13.1184 9.52555C13.1184 8.59126 12.3582 7.83117 11.4239 7.83117C10.4896 7.83117 9.72941 8.59126 9.72941 9.52555ZM15.0683 3.00588C15.0683 1.34844 16.4167 0 18.0742 0C19.7317 0 21.0801 1.34844 21.0801 3.00588C21.0801 4.43811 20.0731 5.63966 18.7299 5.93977V7.93092C18.7299 8.29311 18.4364 8.58667 18.0742 8.58667C17.712 8.58667 17.4184 8.29311 17.4184 7.93092V5.9397C16.0753 5.63966 15.0683 4.43811 15.0683 3.00588ZM16.3798 3.00588C16.3798 3.94018 17.1399 4.70026 18.0742 4.70026C19.0085 4.70026 19.7686 3.94018 19.7686 3.00588C19.7686 2.07158 19.0085 1.3115 18.0742 1.3115C17.1399 1.3115 16.3798 2.07158 16.3798 3.00588ZM26.1585 11.335L25.0606 10.9376L24.1561 4.74405C24.0485 4.00655 23.64 3.39569 23.0056 3.02402C22.6931 2.84078 22.2914 2.94599 22.1084 3.25834C21.9253 3.57077 22.0302 3.97253 22.3427 4.15555C22.6386 4.32903 22.8073 4.58339 22.8584 4.93349L23.8196 11.5155C23.8545 11.7545 24.0181 11.955 24.2453 12.0373L25.7121 12.5682C26.7176 12.9322 26.8166 13.1831 26.7907 13.3611L25.2127 24.1661C25.1385 24.6741 24.8038 24.9964 24.2176 25.1243L14.2714 27.294C14.183 27.3132 14.1142 27.2987 14.0332 27.2438C13.8171 27.0975 13.62 26.7186 13.554 26.3227L13.501 26.0051C13.469 25.813 13.3533 25.6452 13.1852 25.5469C13.017 25.4484 12.8141 25.4301 12.631 25.4963L3.84297 28.677C3.71787 28.7225 3.56027 28.6026 3.51488 28.5649C3.30606 28.3909 3.17447 28.104 3.20893 27.8975L6.25591 9.64847C6.33008 9.20387 6.57249 8.78208 6.80776 8.68816C7.14416 8.55395 7.30795 8.17245 7.17366 7.83613C7.03938 7.49973 6.65781 7.33557 6.32163 7.47022C5.50646 7.79554 5.08489 8.69734 4.96233 9.43266L1.91536 27.6816C1.80337 28.3525 2.10188 29.0948 2.67574 29.5727C3.01374 29.8541 3.39815 30 3.7798 30C3.95168 30 4.12312 29.9704 4.28939 29.9102L12.3674 26.9864C12.5491 27.5624 12.8806 28.0474 13.2976 28.3298C13.6769 28.5866 14.1103 28.6715 14.5508 28.5754L24.497 26.4057C25.6221 26.1603 26.356 25.413 26.5102 24.3556L28.0883 13.5507C28.2988 12.1098 26.7438 11.5469 26.1585 11.335ZM11.3461 10.1813H11.5021C11.8643 10.1813 12.1579 9.88774 12.1579 9.52555C12.1579 9.16336 11.8643 8.8698 11.5021 8.8698H11.3461C10.9839 8.8698 10.6904 9.16336 10.6904 9.52555C10.6904 9.88774 10.9839 10.1813 11.3461 10.1813ZM10.1119 5.30967C10.1485 5.31579 10.1849 5.31871 10.2207 5.31871C10.5354 5.31871 10.8132 5.09152 10.8667 4.77086L11.1996 2.77702C11.2658 2.38088 11.4628 2.00207 11.6789 1.8557C11.76 1.8009 11.829 1.78633 11.9172 1.80557L13.5415 2.15989C13.8955 2.23734 14.2448 2.01278 14.3219 1.65897C14.3991 1.30516 14.1748 0.95579 13.821 0.878558L12.1968 0.524235C11.7563 0.428204 11.3228 0.513014 10.9436 0.769849C10.4222 1.12286 10.0343 1.79245 9.9061 2.56099L9.5732 4.55483C9.51352 4.91207 9.75469 5.25007 10.1119 5.30967Z" fill="#08090E"/>
<path d="M8.41797 9.52555C8.41797 7.86811 9.76648 6.51967 11.424 6.51967C13.0815 6.51967 14.4299 7.86811 14.4299 9.52555C14.4299 10.9578 13.4229 12.1593 12.0797 12.4594V14.4506C12.0797 14.8128 11.7862 15.1063 11.424 15.1063C11.0618 15.1063 10.7682 14.8128 10.7682 14.4506V12.4594C9.42513 12.1594 8.41797 10.9579 8.41797 9.52555ZM9.72947 9.52555C9.72947 10.4598 10.4896 11.2199 11.424 11.2199C12.3583 11.2199 13.1185 10.4598 13.1185 9.52555C13.1185 8.59126 12.3583 7.83117 11.424 7.83117C10.4896 7.83117 9.72947 8.59126 9.72947 9.52555ZM11.3462 10.1813H11.5022C11.8644 10.1813 12.1579 9.88774 12.1579 9.52555C12.1579 9.16336 11.8644 8.8698 11.5022 8.8698H11.3462C10.984 8.8698 10.6904 9.16336 10.6904 9.52555C10.6904 9.88774 10.984 10.1813 11.3462 10.1813Z" fill="white"/>
<path d="M8.41797 9.52555C8.41797 7.86811 9.76648 6.51967 11.424 6.51967C13.0815 6.51967 14.4299 7.86811 14.4299 9.52555C14.4299 10.9578 13.4229 12.1593 12.0797 12.4594V14.4506C12.0797 14.8128 11.7862 15.1063 11.424 15.1063C11.0618 15.1063 10.7682 14.8128 10.7682 14.4506V12.4594C9.42513 12.1594 8.41797 10.9579 8.41797 9.52555ZM9.72947 9.52555C9.72947 10.4598 10.4896 11.2199 11.424 11.2199C12.3583 11.2199 13.1185 10.4598 13.1185 9.52555C13.1185 8.59126 12.3583 7.83117 11.424 7.83117C10.4896 7.83117 9.72947 8.59126 9.72947 9.52555ZM11.3462 10.1813H11.5022C11.8644 10.1813 12.1579 9.88774 12.1579 9.52555C12.1579 9.16336 11.8644 8.8698 11.5022 8.8698H11.3462C10.984 8.8698 10.6904 9.16336 10.6904 9.52555C10.6904 9.88774 10.984 10.1813 11.3462 10.1813Z" fill="#08090E" fill-opacity="0.4"/>
<path d="M17.3405 3.00588C17.3405 2.64369 17.634 2.35013 17.9962 2.35013H18.1523C18.5145 2.35013 18.8081 2.64369 18.8081 3.00588C18.8081 3.36807 18.5145 3.66163 18.1523 3.66163H17.9962C17.6341 3.66163 17.3405 3.36807 17.3405 3.00588ZM18.2453 18.2496C18.2453 18.6118 18.5389 18.9053 18.9011 18.9053H19.0572C19.4194 18.9053 19.713 18.6118 19.713 18.2496C19.713 17.8874 19.4194 17.5938 19.0572 17.5938H18.9011C18.5389 17.5938 18.2453 17.8874 18.2453 18.2496ZM18.9792 15.2437C20.6365 15.2437 21.985 16.5921 21.985 18.2496C21.985 19.6818 20.978 20.8833 19.6349 21.1834V23.1746C19.6349 23.5368 19.3414 23.8303 18.9792 23.8303C18.617 23.8303 18.3234 23.5368 18.3234 23.1746V21.1834C16.9802 20.8834 15.9732 19.6819 15.9732 18.2496C15.9732 16.5921 17.3217 15.2437 18.9792 15.2437ZM18.9792 16.5552C18.0449 16.5552 17.2847 17.3153 17.2847 18.2496C17.2847 19.1838 18.0449 19.9439 18.9792 19.9439C19.9134 19.9439 20.6735 19.1838 20.6735 18.2496C20.6735 17.3153 19.9134 16.5552 18.9792 16.5552ZM15.0684 3.00588C15.0684 1.34844 16.4168 0 18.0742 0C19.7318 0 21.0802 1.34844 21.0802 3.00588C21.0802 4.43811 20.0732 5.63966 18.73 5.93977V7.93092C18.73 8.29311 18.4364 8.58667 18.0742 8.58667C17.712 8.58667 17.4185 8.29311 17.4185 7.93092V5.9397C16.0754 5.63966 15.0684 4.43811 15.0684 3.00588ZM16.3799 3.00588C16.3799 3.94018 17.1399 4.70026 18.0742 4.70026C19.0085 4.70026 19.7687 3.94018 19.7687 3.00588C19.7687 2.07158 19.0085 1.3115 18.0742 1.3115C17.1399 1.3115 16.3799 2.07158 16.3799 3.00588Z" fill="white"/>
<path d="M17.3405 3.00588C17.3405 2.64369 17.634 2.35013 17.9962 2.35013H18.1523C18.5145 2.35013 18.8081 2.64369 18.8081 3.00588C18.8081 3.36807 18.5145 3.66163 18.1523 3.66163H17.9962C17.6341 3.66163 17.3405 3.36807 17.3405 3.00588ZM18.2453 18.2496C18.2453 18.6118 18.5389 18.9053 18.9011 18.9053H19.0572C19.4194 18.9053 19.713 18.6118 19.713 18.2496C19.713 17.8874 19.4194 17.5938 19.0572 17.5938H18.9011C18.5389 17.5938 18.2453 17.8874 18.2453 18.2496ZM18.9792 15.2437C20.6365 15.2437 21.985 16.5921 21.985 18.2496C21.985 19.6818 20.978 20.8833 19.6349 21.1834V23.1746C19.6349 23.5368 19.3414 23.8303 18.9792 23.8303C18.617 23.8303 18.3234 23.5368 18.3234 23.1746V21.1834C16.9802 20.8834 15.9732 19.6819 15.9732 18.2496C15.9732 16.5921 17.3217 15.2437 18.9792 15.2437ZM18.9792 16.5552C18.0449 16.5552 17.2847 17.3153 17.2847 18.2496C17.2847 19.1838 18.0449 19.9439 18.9792 19.9439C19.9134 19.9439 20.6735 19.1838 20.6735 18.2496C20.6735 17.3153 19.9134 16.5552 18.9792 16.5552ZM15.0684 3.00588C15.0684 1.34844 16.4168 0 18.0742 0C19.7318 0 21.0802 1.34844 21.0802 3.00588C21.0802 4.43811 20.0732 5.63966 18.73 5.93977V7.93092C18.73 8.29311 18.4364 8.58667 18.0742 8.58667C17.712 8.58667 17.4185 8.29311 17.4185 7.93092V5.9397C16.0754 5.63966 15.0684 4.43811 15.0684 3.00588ZM16.3799 3.00588C16.3799 3.94018 17.1399 4.70026 18.0742 4.70026C19.0085 4.70026 19.7687 3.94018 19.7687 3.00588C19.7687 2.07158 19.0085 1.3115 18.0742 1.3115C17.1399 1.3115 16.3799 2.07158 16.3799 3.00588Z" fill="#08090E" fill-opacity="0.4"/>
</svg>
