<svg width="227" height="114" viewBox="0 0 227 114" fill="none" xmlns="http://www.w3.org/2000/svg">
<path fill-rule="evenodd" clip-rule="evenodd" d="M216.047 87.6139H204.608H197.922H186.483H179.797H168.365H162.081V94.8762H222.343V87.6139H216.047ZM158.985 95.8502H68.1285L38.5722 101.14H188.541L158.985 95.8502ZM66.08 94.8762H72.8687V56.3518C72.8687 45.0714 77.4468 34.8167 84.8221 27.383C92.1973 19.9491 102.371 15.3347 113.563 15.3347C124.754 15.3347 134.928 19.9491 142.304 27.383C149.679 34.8167 154.257 45.0714 154.257 56.3518V94.8762H161.055V86.6399H161.065H162.081H162.578V48.595H161.568H161.055V48.0784V42.3007H160.316L158.778 40.0807H171.631V35.8352H171.343H168.806H168.05C157.479 16.4684 137.042 3.34275 113.563 3.34275C90.0831 3.34275 69.6465 16.4684 59.0754 35.8352H59.0621H58.3064H55.783H55.7697H55.5041V40.0807H68.3572L66.8191 42.3007H66.08V48.0784V48.595H65.5672H64.5573V86.6399H65.0545H66.0707H66.08V94.8762ZM223.372 102.42H3.75319V102.267H3.745V94.8762H3.76708V86.6399H3.78453H4.79232H5.28972V48.595H4.27979H3.76708V48.0784V42.3007H3.02721L1.48926 40.0807H54.0194V35.8352H52.3183L50.7804 33.6154H56.982L57.0022 33.5808C59.4352 29.2753 62.3375 25.2752 65.6401 21.6503L65.6949 21.5899C65.9123 21.3516 66.1318 21.1149 66.3527 20.8804L66.4178 20.8111C66.6301 20.5863 66.8439 20.3636 67.0591 20.1418L67.1638 20.0334C67.376 19.8152 67.5909 19.5994 67.8061 19.3844L67.9102 19.28C68.1265 19.065 68.345 18.8517 68.5643 18.6398L68.673 18.5348C68.8817 18.3344 69.0919 18.1348 69.3031 17.9374L69.4676 17.7835C69.6753 17.5908 69.884 17.3991 70.0937 17.2089L70.2397 17.0767C70.4586 16.8797 70.6785 16.6844 70.9 16.4901L71.0369 16.3702C71.246 16.1877 71.4563 16.0071 71.6676 15.8276L71.8834 15.6453C72.089 15.4722 72.2955 15.3001 72.5032 15.1296L72.674 14.99C72.8985 14.8072 73.124 14.6247 73.3506 14.4449L73.4881 14.3363C73.7218 14.1513 73.9572 13.9685 74.1939 13.7871L74.3308 13.6821C74.5585 13.5086 74.7871 13.3365 75.0168 13.1655L75.2352 13.0042L75.8668 12.5443L76.1145 12.3681C76.3292 12.2157 76.544 12.0643 76.7609 11.9139L76.9469 11.7863C77.1751 11.6292 77.4032 11.473 77.6334 11.3191L77.8632 11.1673C78.0877 11.0183 78.3127 10.8701 78.5393 10.7239L78.6962 10.6236C78.9509 10.4598 79.2064 10.2981 79.4642 10.1378L79.5094 10.11C79.7862 9.93796 80.0639 9.76785 80.344 9.5999L80.5567 9.47429C82.2987 8.43822 84.0931 7.48075 85.9341 6.6085L86.0124 6.57136C86.2453 6.46119 86.4796 6.3537 86.7138 6.24676L87.007 6.112C87.2034 6.023 87.4008 5.93723 87.5983 5.85056L88.0145 5.66754L88.6036 5.41902L89.0029 5.2516C89.2161 5.16368 89.431 5.07898 89.6448 4.99321L90.0144 4.8459L90.5978 4.6216L91.0521 4.4497C91.2556 4.37362 91.4601 4.30023 91.6647 4.2263L92.0498 4.08849L92.6844 3.86886L93.114 3.72316L93.6872 3.53601L94.1599 3.38402L94.7141 3.21356L95.2437 3.05386L95.7425 2.90923L96.2992 2.75204L96.8452 2.60383L97.341 2.47302L97.908 2.32947L98.4488 2.19722L98.961 2.07628L99.5419 1.94494L100.048 1.83494L100.621 1.71615L101.167 1.60706L101.707 1.50478L102.237 1.40752L102.842 1.30417L103.353 1.22055L103.936 1.13119L104.469 1.05313L105.057 0.974003L105.58 0.905816L106.187 0.83494L106.708 0.776623L107.266 0.721355L107.865 0.665013L108.34 0.626793C108.555 0.609747 108.768 0.591623 108.983 0.576729C109.201 0.561118 109.419 0.549275 109.637 0.535817L110.1 0.508006C110.369 0.493471 110.639 0.482525 110.909 0.471759L111.246 0.456865C111.485 0.448431 111.726 0.443946 111.965 0.437666L112.419 0.425822C112.8 0.418465 113.18 0.415955 113.563 0.415955C137.81 0.415955 158.955 13.7896 170.144 33.6154H176.332L174.794 35.8352H173.116V40.0807H225.646L224.108 42.3007H223.368V48.0784V48.595H222.856H221.846V86.6399H222.343H223.351H223.368V94.8762V101.14H223.372V102.42ZM216.058 48.595V48.0784V47.3895H212.722V62.2153H216.058V48.595ZM212.006 47.3895H208.67V62.1848H212.006V47.3895ZM207.954 47.3895H204.618V48.0784V48.595V62.1532H207.954V47.3895ZM197.932 48.595V48.0784V47.3895H194.596V62.2153H197.932V48.595ZM193.88 47.3895H190.544V62.1848H193.88V47.3895ZM189.827 47.3895H186.492V48.0784V48.595V62.1532H189.827V47.3895ZM179.806 48.595V48.0784V47.3895H176.47V62.2153H179.806V48.595ZM175.754 47.3895H172.418V62.1848H175.754V47.3895ZM171.702 47.3895H168.366V48.0784V48.595V62.1532H171.702V47.3895ZM162.081 42.3007V47.5616H167.34V46.8727V46.3559H167.853H180.319H180.831V46.8727V47.5616H185.466V46.8727V46.3559H185.979H198.444H198.957V46.8727V47.5616H203.593V46.8727V46.3559H204.105H216.571H217.084V46.8727V47.5616H222.343V42.3007H162.081ZM175.032 65.6449H172.982V67.7113H175.032V65.6449ZM193.228 65.6449H191.178V67.7118H193.228V65.6449ZM211.353 65.6449H209.303V67.7118H211.353V65.6449ZM216.048 64.0807H204.608V63.1066H216.048V64.0807ZM197.922 64.0807H186.483V63.1066H197.922V64.0807ZM179.797 64.0807H168.217V63.1066H179.797V64.0807ZM212.722 70.8024V75.9171H216.058V70.8024H212.722ZM212.722 76.639V86.6399H216.058V76.639H212.722ZM176.47 70.8024V75.9171H179.806V70.8024H176.47ZM176.47 76.639V86.6399H179.806V76.639H176.47ZM168.366 70.8024V75.9171H171.702V70.8024H168.366ZM168.366 76.639V86.6399H171.702V76.639H168.366ZM172.418 70.8024V75.9171H175.754V70.8024H172.418ZM172.418 76.639V86.6399H175.754V76.639H172.418ZM194.596 70.8024V75.9171H197.932V70.8024H194.596ZM194.596 76.639V86.6399H197.932V76.639H194.596ZM186.492 70.8024V75.9171H189.827V70.8024H186.492ZM186.492 76.639V86.6399H189.827V76.639H186.492ZM190.544 70.8024V75.9171H193.88V70.8024H190.544ZM190.544 76.639V86.6399H193.88V76.639H190.544ZM204.618 70.8024V75.9171H207.954V70.8024H204.618ZM204.618 76.639V86.6399H207.954V76.639H204.618ZM208.67 70.8024V75.9171H212.006V70.8024H208.67ZM208.67 76.639V86.6399H212.006V76.639H208.67ZM65.0545 94.8762H4.79232V87.6139H11.088H22.5271H29.2133H40.6521H47.3383H58.7708H65.0545V94.8762ZM58.7698 48.595V62.1532H55.4338V47.3895H58.7698V48.0784V48.595ZM54.7176 47.3895V62.1848H51.3818V47.3895H54.7176ZM50.6656 47.3895V62.2153H47.3296V48.595V48.0784V47.3895H50.6656ZM40.6439 48.595V62.1532H37.3079V47.3895H40.6439V48.0784V48.595ZM36.5917 47.3895V62.1848H33.2557V47.3895H36.5917ZM32.5395 47.3895V62.2153H29.2037V48.595V48.0784V47.3895H32.5395ZM22.5175 48.595V62.1532H19.1815V47.3895H22.5175V48.0784V48.595ZM18.4653 47.3895V62.1848H15.1293V47.3895H18.4653ZM14.4131 47.3895V62.2153H11.0773V48.595V48.0784V47.3895H14.4131ZM4.79232 42.3007H65.0545V47.5616H59.7952V46.8727V46.3559H59.2825H46.8169H46.3041V46.8727V47.5616H41.6691V46.8727V46.3559H41.1566H28.691H28.1783V46.8727V47.5616H23.5427V46.8727V46.3559H23.03H10.5646H10.0519V46.8727V47.5616H4.79232V42.3007ZM52.1031 65.6449H54.1532V67.7113H52.1031V65.6449ZM33.9074 65.6449H35.9576V67.7118H33.9074V65.6449ZM15.7819 65.6449H17.8326V67.7118H15.7819V65.6449ZM11.0874 64.0807H22.5271V63.1066H11.0874V64.0807ZM29.2133 64.0807H40.6521V63.1066H29.2133V64.0807ZM47.3383 64.0807H58.9184V63.1066H47.3383V64.0807ZM14.4131 70.8024V75.9171H11.0773V70.8024H14.4131ZM14.4131 76.639V86.6399H11.0773V76.639H14.4131ZM50.6656 70.8024V75.9171H47.3296V70.8024H50.6656ZM50.6656 76.639V86.6399H47.3296V76.639H50.6656ZM58.7698 70.8024V75.9171H55.4338V70.8024H58.7698ZM58.7698 76.639V86.6399H55.4338V76.639H58.7698ZM54.7176 70.8024V75.9171H51.3818V70.8024H54.7176ZM54.7176 76.639V86.6399H51.3818V76.639H54.7176ZM32.5395 70.8024V75.9171H29.2037V70.8024H32.5395ZM32.5395 76.639V86.6399H29.2037V76.639H32.5395ZM40.6439 70.8024V75.9171H37.3079V70.8024H40.6439ZM40.6439 76.639V86.6399H37.3079V76.639H40.6439ZM36.5917 70.8024V75.9171H33.2557V70.8024H36.5917ZM36.5917 76.639V86.6399H33.2557V76.639H36.5917ZM22.5175 70.8024V75.9171H19.1815V70.8024H22.5175ZM22.5175 76.639V86.6399H19.1815V76.639H22.5175ZM18.4653 70.8024V75.9171H15.1293V70.8024H18.4653ZM18.4653 76.639V86.6399H15.1293V76.639H18.4653ZM76.2887 94.8762H77.314V56.249C77.314 46.2025 81.3929 37.0676 87.9627 30.4456C94.5325 23.8237 103.596 19.7124 113.563 19.7124C123.531 19.7124 132.593 23.8231 139.163 30.4451C145.733 37.0676 149.812 46.202 149.812 56.249V94.8762H150.837V56.249C150.837 45.9163 146.643 36.5235 139.888 29.7144C133.133 22.9059 123.814 18.6791 113.563 18.6791C103.312 18.6791 93.9932 22.9059 87.2378 29.715C80.4823 36.5241 76.2887 45.9178 76.2887 56.249V94.8762ZM78.6315 94.8762H90.0128V86.0239H78.6315V94.8762ZM137.27 94.8762H148.651V86.0239H137.27V94.8762ZM130.053 24.7874V34.8731H126.739V26.4476H126.737V25.6435V23.2233L130.053 24.7874ZM78.7291 54.0936H82.0434V62.5191H78.7291V54.0936ZM134.08 27.311L134.079 34.8566H130.765V26.4311H130.763V25.627V25.1786C131.909 25.8285 133.017 26.5402 134.08 27.311ZM126.026 25.6602H126.027V26.4643V34.8896H122.713V26.4643H122.711V25.6602V21.8574C123.839 22.165 124.945 22.5273 126.026 22.9416V25.6602ZM104.751 25.5874H104.753V26.3913V34.8167H101.439V26.3913H101.437V25.5874V22.8118C102.518 22.4099 103.624 22.06 104.751 21.765V25.5874ZM97.4127 26.4079L97.4111 25.6039V24.606C98.4851 24.0439 99.591 23.5364 100.725 23.0858V25.6039L100.727 26.4079V34.8332H97.4127V26.4079ZM96.6996 25.6204L96.7012 26.4244V34.8499H93.3872V27.0672C94.4506 26.3159 95.5558 25.6209 96.6996 24.9884V25.6204ZM147.017 44.9102H145.431V53.3357H148.736C148.502 50.4161 147.915 47.5932 147.017 44.9102ZM145.43 40.9721V44.1062H146.737C146.35 43.0371 145.913 41.9911 145.43 40.9721ZM142.353 35.6972H141.404V44.1227H144.718V39.5553C144.009 38.2169 143.22 36.9282 142.353 35.6972ZM141.402 34.4121V34.8932H141.769L141.402 34.4121ZM137.376 30.0137V34.9098H140.691V33.5208C139.665 32.278 138.557 31.1056 137.376 30.0137ZM116.1 20.7284V25.6069H119.414V21.13C118.325 20.945 117.22 20.81 116.1 20.7284ZM112.074 20.669V25.624H115.389V20.6825C114.783 20.6503 114.175 20.6349 113.563 20.6349C113.064 20.6349 112.568 20.6478 112.074 20.669ZM108.049 21.0736V25.6399H111.363V20.7067C110.243 20.777 109.138 20.8994 108.049 21.0736ZM86.7754 33.2872V34.7972H90.0897V29.7047C89.4228 30.3057 88.7779 30.9308 88.1574 31.5809L88.1277 31.6161L87.8847 31.9039L87.8724 31.9188L87.8217 31.9798L87.771 32.0414L87.7202 32.1024L87.67 32.1637L87.3681 32.5343L87.3182 32.5964L87.2686 32.6583L87.2189 32.7209C87.0861 32.8872 86.9547 33.0552 86.8246 33.2237L86.7754 33.2872ZM85.6491 34.8137H86.0637V34.2344L86.0571 34.2438L86.0505 34.2524L86.0443 34.2612L86.0377 34.2705C85.9095 34.4462 85.7822 34.6251 85.6557 34.8033L85.6551 34.8043L85.6491 34.8137ZM82.7514 39.4695V44.0432H86.0653V35.6177H85.0943L85.0908 35.6235C84.9877 35.7758 84.8857 35.9292 84.7842 36.0837L84.6324 36.3163L84.5939 36.3753L84.3602 36.7401L84.1802 37.0263L84.1433 37.0862L83.9952 37.3256L83.9582 37.3855L83.9219 37.4455L83.7394 37.7471L83.7029 37.8076L83.6666 37.868L83.6306 37.9291L83.5943 37.9895L83.5584 38.0505L83.5224 38.1115L83.2733 38.5399L83.2379 38.6014L83.2025 38.6628L83.1678 38.7243L83.1323 38.7859C83.0503 38.93 82.9693 39.0742 82.8888 39.2199L82.8545 39.2818L82.8201 39.3445L82.7857 39.4069L82.7514 39.4695ZM80.5234 44.0597H82.0398V40.8166L82.0142 40.8657L81.9891 40.9152L81.9645 40.9649L81.7651 41.3628L81.7404 41.4125L81.7158 41.4625L81.6912 41.5126L81.6667 41.5623L81.6179 41.6624L81.5933 41.7127L81.4 42.1151L81.3765 42.1657L81.3523 42.216L81.3282 42.2666L81.2334 42.4692L81.2099 42.5203L81.0689 42.8252L81.0457 42.8763L81.0228 42.9275L80.8843 43.2345L80.8613 43.2856L80.8382 43.3373L80.7248 43.5946L80.7023 43.6457L80.5455 44.008L80.5234 44.0597ZM78.7275 50.5307V53.289H82.0419V44.8638H80.1871L80.185 44.8693L80.0881 45.1087L80.063 45.1701L79.8928 45.6011L79.8681 45.6626L79.8558 45.6945C79.3709 47.2639 78.9931 48.8787 78.7275 50.5307ZM93.3924 62.5345H96.7069V54.1134H93.3924V62.5345ZM108.055 62.5345H111.37V54.1335H108.055V62.5345ZM112.081 62.5345H115.396V54.1164H112.081V62.5345ZM122.719 62.5345H126.033V54.153H122.719V62.5345ZM126.745 62.5345H130.058V54.1365H126.745V62.5345ZM130.77 62.5345H134.084V54.1195H130.77V62.5345ZM137.381 62.5345H140.696V54.1733H137.381V62.5345ZM141.407 62.5345H144.721V54.1563H141.407V62.5345ZM145.433 62.5345H148.747V54.1396H145.433V62.5345ZM137.378 35.7137H140.692V44.1392H137.378V35.7137ZM137.38 44.9432H140.694V53.3687H137.38V44.9432ZM141.406 44.9267H144.72V53.3522H141.406V44.9267ZM122.715 35.6936H126.029V44.1196H122.715V35.6936ZM130.766 35.6606H134.081V44.0861H130.766V35.6606ZM126.741 35.6777H130.055V44.1031H126.741V35.6777ZM122.717 44.9237H126.031V53.349H122.717V44.9237ZM130.769 44.8905H134.082V53.3159H130.769V44.8905ZM126.743 44.9066H130.057V53.3325H126.743V44.9066ZM108.05 26.4445H111.364V34.87H108.05V26.4445ZM116.102 26.411H119.416V34.837H116.102V26.411ZM112.076 26.4275H115.39V34.8535H112.076V26.4275ZM108.052 35.6741H111.366V44.0993H108.052V35.6741ZM116.104 35.6409H119.418V44.0663H116.104V35.6409ZM112.078 35.6576H115.392V44.0828H112.078V35.6576ZM108.054 44.9034H111.368V53.3289H108.054V44.9034ZM116.106 44.8704H119.42V53.2959H116.106V44.8704ZM112.08 44.8869H115.394V53.3124H112.08V44.8869ZM116.107 54.0999H119.421V62.5257H116.107V54.0999ZM93.3888 35.6538H96.7031V44.0798H93.3888V35.6538ZM101.44 35.6208H104.755V44.0462H101.44V35.6208ZM97.4149 35.6373H100.729V44.0633H97.4149V35.6373ZM93.3908 44.8833H96.7047V53.3093H93.3908V44.8833ZM101.442 44.8508H104.756V53.2761H101.442V44.8508ZM97.4163 44.8668H100.731V53.2928H97.4163V44.8668ZM101.444 54.0796H104.758V62.5056H101.444V54.0796ZM97.4179 54.0967H100.732V62.5221H97.4179V54.0967ZM86.7774 35.6007H90.0913V44.0265H86.7774V35.6007ZM86.779 44.8306H90.0933V53.256H86.779V44.8306ZM82.753 44.8471H86.0674V53.2725H82.753V44.8471ZM86.781 54.0601H90.0949V62.4861H86.781V54.0601ZM82.7549 54.0766H86.0689V62.502H82.7549V54.0766ZM82.6592 74.5844H85.9731V84.9771H82.6592V74.5844ZM86.6846 74.5642H89.9991V84.9568H86.6846V74.5642ZM78.6331 74.6051H81.9476V84.9977H78.6331V74.6051ZM82.657 68.845H85.9715V73.8522H82.657V68.845ZM86.683 68.8351H89.997V73.8423H86.683V68.8351ZM78.6315 68.8548H81.9455V73.862H78.6315V68.8548ZM104.64 88.1752H104.659V93.4499H99.5296V93.3756H99.5106V88.1002H104.64V88.1752ZM99.5269 73.7535H104.656V87.2315H99.5269V73.7535ZM93.2965 73.7716H98.4257V87.2496H93.2965V73.7716ZM100.615 68.8683H100.634V73.0187H97.3205V72.9437H97.3015V68.7938H100.615V68.8683ZM104.641 68.8532H104.66V73.0038H101.347V72.9288H101.327V68.7784H104.641V68.8532ZM96.5899 68.8837H96.609V73.0337H93.2945V72.9587H93.2755V68.8089H96.5899V68.8837ZM98.4093 88.1854H98.4284V93.4603H93.2991V93.3858H93.2801V88.1111H98.4093V88.1854ZM119.309 88.1876H119.329V93.4625H114.196V93.388H114.178V88.1131H119.309V88.1876ZM114.193 73.7752H119.326V87.2532H114.193V73.7752ZM107.959 73.7933H113.092V87.2714H107.959V73.7933ZM115.279 68.8868H115.298V73.0368H111.984V72.9618H111.964V68.8119H115.279V68.8868ZM119.304 68.8713H119.323V73.0217H116.009V72.9469H115.99V68.7969H119.304V68.8713ZM111.253 68.9018H111.272V73.0517H107.958V72.9774H107.939V68.8268H111.253V68.9018ZM113.075 88.1978H113.094V93.4732H107.962V93.3982H107.943V88.1235H113.075V88.1978ZM133.968 88.1999H133.987V93.4754H128.857V93.4004H128.838V88.1255H133.968V88.1999ZM128.854 73.7969H133.984V87.2749H128.854V73.7969ZM122.623 73.815H127.752V87.2931H122.623V73.815ZM129.942 68.9049H129.961V73.0549H126.647V72.9799H126.628V68.8301H129.942V68.9049ZM133.968 68.89H133.987V73.0398H130.673V72.965H130.653V68.815H133.968V68.89ZM125.916 68.92H125.935V73.0704H122.621V72.9953H122.602V68.845H125.916V68.92ZM127.736 88.2107H127.756V93.4856H122.625V93.4108H122.606V88.1359H127.736V88.2107ZM141.311 74.6288H144.626V85.0499H141.311V74.6288ZM145.338 74.6081H148.651V85.0293H145.338V74.6081ZM137.286 74.6496H140.6V85.07H137.286V74.6496ZM141.31 68.9178H144.624V73.8568H141.31V68.9178ZM145.336 68.9079H148.65V73.8469H145.336V68.9079ZM137.284 68.9271H140.599V73.8661H137.284V68.9271Z" fill="#EBD7AE"/>
<path fill-rule="evenodd" clip-rule="evenodd" d="M151.877 97.9894H75.249V97.0154H151.877V97.9894Z" fill="#EBD7AE"/>
<path fill-rule="evenodd" clip-rule="evenodd" d="M155.042 100.128H72.0845V99.1542H155.042V100.128Z" fill="#EBD7AE"/>
<path d="M83.0271 19.9455L82.6866 19.1937L81.9438 16.4452L84.0022 14.8303L85.8082 23.7135L83.8503 25.2498L83.3648 22.4616L77.928 19.5961L79.9859 17.9814L82.3764 19.437L83.0271 19.9455ZM91.6487 19.7192L88.326 12.3128L90.3106 11.4084L91.8178 14.7684L92.6289 10.3517L94.9708 9.28425L93.8766 14.124L98.5359 16.5805L96.0325 17.721L92.1361 15.4779L93.6331 18.8149L91.6487 19.7192ZM112.95 6.57798C113.572 6.93147 114.069 7.42295 114.441 8.0517C114.814 8.68063 115.022 9.34723 115.065 10.0526C115.07 10.1368 115.073 10.2241 115.074 10.314C115.076 10.4034 115.07 10.4913 115.059 10.5766C115.044 10.7569 115.019 10.9353 114.984 11.1118C114.948 11.2891 114.901 11.4648 114.844 11.6385C114.549 12.4833 114.041 13.1567 113.319 13.6573C112.597 14.1576 111.823 14.4341 110.997 14.4852C110.938 14.4888 110.881 14.4903 110.826 14.4894C110.772 14.4883 110.715 14.4899 110.656 14.4935C110.368 14.4861 110.08 14.4526 109.794 14.3937C109.506 14.3349 109.228 14.2453 108.959 14.1255C108.228 13.7964 107.64 13.2977 107.193 12.6306C106.747 11.964 106.501 11.2566 106.455 10.51C106.448 10.3993 106.445 10.2887 106.447 10.1782C106.449 10.0671 106.459 9.95086 106.477 9.83082C106.497 9.60814 106.538 9.38187 106.601 9.15183C106.663 8.92197 106.742 8.7018 106.839 8.4915C107.191 7.7454 107.698 7.1599 108.362 6.73517C109.025 6.31044 109.736 6.07466 110.494 6.02765C110.586 6.02209 110.681 6.01796 110.779 6.01635C110.876 6.01419 110.971 6.0194 111.065 6.03034C111.387 6.05295 111.71 6.1093 112.033 6.20027C112.355 6.29124 112.661 6.41739 112.95 6.57798ZM112.779 11.0505C112.799 10.9647 112.817 10.8737 112.832 10.7791C112.847 10.6846 112.857 10.59 112.86 10.496C112.864 10.4361 112.866 10.3761 112.868 10.3166C112.868 10.2566 112.867 10.2014 112.864 10.1508C112.861 10.0996 112.856 10.0485 112.848 9.99787C112.84 9.94763 112.835 9.89649 112.832 9.84589C112.768 9.48307 112.637 9.13747 112.439 8.80875C112.241 8.4802 111.977 8.23257 111.645 8.06516C111.559 8.02801 111.472 7.99554 111.386 7.96647C111.3 7.93758 111.218 7.91335 111.14 7.89218C111.055 7.88016 110.97 7.87101 110.885 7.86365C110.8 7.85593 110.715 7.85486 110.631 7.86006C110.202 7.88698 109.814 8.04721 109.468 8.34113C109.122 8.63577 108.892 9.01241 108.776 9.47069C108.756 9.55754 108.736 9.65264 108.717 9.75546C108.698 9.85935 108.684 9.96217 108.673 10.0655C108.668 10.1249 108.665 10.1829 108.665 10.2381C108.664 10.2939 108.665 10.3512 108.669 10.4108C108.671 10.4449 108.673 10.4763 108.675 10.5062C108.676 10.5362 108.678 10.5678 108.681 10.6019C108.741 11.0499 108.907 11.468 109.175 11.8559C109.444 12.2441 109.806 12.4879 110.26 12.5877C110.363 12.6151 110.466 12.6342 110.568 12.6451C110.67 12.6559 110.776 12.658 110.885 12.6512C111.323 12.6239 111.716 12.4653 112.061 12.1753C112.407 11.8854 112.647 11.5109 112.779 11.0505ZM126.095 11.3088C125.768 12.009 125.311 12.4054 124.723 12.4989C124.134 12.5918 123.529 12.5841 122.905 12.4761C122.864 12.4684 122.824 12.4606 122.787 12.4538C122.749 12.4467 122.71 12.4395 122.669 12.4316C122.611 12.4208 122.554 12.4079 122.501 12.3939C122.448 12.379 122.397 12.3675 122.347 12.3582C122.289 12.3474 122.233 12.3345 122.18 12.3205C122.127 12.3062 122.071 12.2936 122.014 12.2828L121.525 14.9295L119.483 14.5471L120.958 6.55573L123.46 7.02496C123.568 7.04524 123.676 7.06533 123.784 7.08543C123.892 7.10571 123.999 7.12993 124.105 7.15882C124.533 7.25643 124.935 7.40483 125.311 7.60526C125.685 7.80533 125.975 8.11899 126.179 8.54677C126.287 8.75707 126.361 8.98549 126.401 9.23096C126.442 9.47643 126.457 9.71975 126.447 9.96001C126.442 10.0284 126.436 10.1012 126.426 10.1766C126.416 10.2525 126.405 10.3244 126.393 10.3916C126.364 10.5496 126.323 10.7088 126.273 10.868C126.221 11.0271 126.163 11.1744 126.095 11.3088ZM122.335 10.5389C122.368 10.545 122.403 10.5538 122.44 10.5647C122.476 10.5766 122.515 10.5859 122.557 10.5936C122.59 10.5999 122.625 10.6087 122.662 10.6194C122.698 10.6307 122.733 10.639 122.766 10.6453C122.783 10.6483 122.799 10.6516 122.816 10.6546C122.833 10.6577 122.849 10.6607 122.866 10.6639C123.174 10.7135 123.47 10.7063 123.752 10.6422C124.034 10.5782 124.216 10.3508 124.296 9.95912L124.31 9.88357C124.375 9.53277 124.3 9.27851 124.084 9.1215C123.868 8.96432 123.621 8.85073 123.342 8.78093C123.294 8.76335 123.245 8.74935 123.195 8.74002C123.145 8.73069 123.096 8.72154 123.046 8.71221L122.684 8.64456L122.335 10.5389ZM130.093 17.3381L132.358 11.5723L130.687 10.9053L131.391 9.11361L136.782 11.2654L136.078 13.0569L134.406 12.3898L132.141 18.1556L130.093 17.3381ZM136.535 20.2654L141.182 13.6221L142.962 14.8872L140.854 17.9008L145.041 16.365L147.141 17.8579L142.449 19.3627L142.712 24.6555L140.466 23.06L140.408 18.5375L138.314 21.5303L136.535 20.2654Z" fill="#EBD7AE"/>
<path d="M72.2306 106.061V108.14C71.9915 107.892 71.7418 107.691 71.4813 107.538C71.2207 107.385 70.9207 107.308 70.5801 107.308H70.4176C69.9181 107.352 69.5328 107.567 69.2615 107.954C68.9897 108.34 68.8435 108.76 68.8214 109.212C68.8214 109.227 68.8214 109.243 68.8214 109.261C68.8214 109.279 68.8214 109.296 68.8214 109.31C68.8214 109.719 68.9267 110.104 69.1364 110.465C69.3463 110.826 69.6575 111.068 70.0703 111.193C70.1714 111.222 70.2674 111.244 70.3582 111.258C70.4484 111.273 70.5335 111.28 70.6129 111.28C70.9314 111.28 71.2207 111.198 71.4813 111.034C71.7418 110.87 71.9915 110.667 72.2306 110.426V112.506C72.129 112.55 72.0294 112.589 71.9321 112.626C71.8341 112.662 71.7346 112.695 71.6335 112.724C71.4382 112.775 71.2408 112.817 71.0418 112.85C70.8427 112.883 70.6417 112.899 70.4392 112.899C70.3961 112.899 70.3539 112.899 70.3145 112.899C70.2745 112.899 70.233 112.899 70.1894 112.899C70.1463 112.899 70.1046 112.897 70.0648 112.894C70.0247 112.89 69.9832 112.885 69.9402 112.878C69.0281 112.79 68.2989 112.395 67.7522 111.69C67.2061 110.986 66.9326 110.182 66.9326 109.278C66.9326 108.38 67.2061 107.58 67.7522 106.876C68.2989 106.172 69.0281 105.765 69.9402 105.656C69.9759 105.656 70.0124 105.654 70.0482 105.651C70.0847 105.647 70.1207 105.645 70.157 105.645C70.1858 105.645 70.2186 105.643 70.2545 105.64C70.2909 105.636 70.3274 105.634 70.3631 105.634C70.6816 105.634 70.9981 105.672 71.3131 105.749C71.628 105.826 71.9337 105.93 72.2306 106.061ZM76.273 112.768V105.798H80.5175V107.319H78.1296V108.533H80.3765V110.022H78.1296V111.203H80.5175V112.768H76.273ZM84.6692 105.798H86.8402C86.9776 105.798 87.1227 105.8 87.2745 105.803C87.4264 105.807 87.5788 105.816 87.7305 105.831C88.23 105.875 88.6911 106 89.1148 106.208C89.5379 106.417 89.764 106.812 89.7932 107.396V107.538C89.7932 107.961 89.6789 108.282 89.4512 108.501C89.223 108.719 88.9136 108.888 88.5228 109.004C89.0297 109.055 89.4183 109.24 89.6901 109.557C89.9615 109.874 90.0969 110.277 90.0969 110.766V110.941C90.061 111.597 89.8092 112.046 89.3425 112.287C88.8757 112.527 88.3639 112.674 87.8065 112.724C87.6039 112.747 87.4013 112.759 87.1987 112.763C86.9961 112.766 86.8042 112.768 86.6231 112.768H84.6692V105.798ZM86.4279 111.335C86.4715 111.335 86.5181 111.335 86.5688 111.335C86.6196 111.335 86.6741 111.335 86.7319 111.335C86.7606 111.342 86.7894 111.346 86.8186 111.346C86.8473 111.346 86.8767 111.346 86.9053 111.346C86.9345 111.346 86.9632 111.346 86.9925 111.346C87.0212 111.346 87.0499 111.346 87.0792 111.346C87.1008 111.346 87.1243 111.346 87.1499 111.346C87.175 111.346 87.2023 111.346 87.2309 111.346C87.4843 111.338 87.7198 111.293 87.9366 111.209C88.1536 111.125 88.2731 110.959 88.2951 110.711V110.569C88.2951 110.284 88.1864 110.093 87.9695 109.994C87.752 109.896 87.5172 109.839 87.2639 109.825C87.2345 109.825 87.2074 109.825 87.1823 109.825C87.157 109.825 87.13 109.825 87.1008 109.825H86.4279V111.335ZM88.0126 107.997V107.877C88.0126 107.621 87.9188 107.447 87.7305 107.352C87.5423 107.257 87.3326 107.202 87.1008 107.188C87.0719 107.181 87.0392 107.177 87.0032 107.177C86.9669 107.177 86.9345 107.177 86.9053 107.177H86.4279V108.588C86.4636 108.588 86.5023 108.588 86.5416 108.588C86.5817 108.588 86.6231 108.588 86.6668 108.588C86.6883 108.595 86.7084 108.599 86.7262 108.599C86.7442 108.599 86.7643 108.599 86.7859 108.599C86.8151 108.599 86.8423 108.599 86.8674 108.599C86.893 108.599 86.916 108.599 86.9381 108.599C86.9596 108.599 86.9833 108.599 87.0084 108.599C87.034 108.599 87.0613 108.599 87.0899 108.599C87.3069 108.585 87.5079 108.539 87.6925 108.463C87.8771 108.386 87.9838 108.231 88.0126 107.997ZM92.5223 112.768L94.8998 105.798H97.2555L99.6547 112.768H97.7658L97.4185 111.51H94.7482L94.3896 112.768H92.5223ZM95.1496 110.164H97.0278L96.3221 107.855C96.2858 107.746 96.2514 107.631 96.219 107.51C96.1862 107.39 96.159 107.272 96.1375 107.155C96.123 107.111 96.1124 107.07 96.1047 107.029C96.0974 106.989 96.0903 106.951 96.0832 106.914C96.0759 106.951 96.0666 106.989 96.0559 107.029C96.0451 107.07 96.036 107.111 96.0287 107.155C96.0216 107.17 96.018 107.182 96.018 107.193C96.018 107.204 96.0144 107.217 96.0071 107.231C95.9856 107.341 95.9621 107.447 95.9365 107.549C95.9112 107.651 95.8841 107.753 95.8553 107.855L95.1496 110.164ZM107.258 106.061V108.14C107.019 107.892 106.769 107.691 106.509 107.538C106.248 107.385 105.948 107.308 105.608 107.308H105.445C104.946 107.352 104.56 107.567 104.289 107.954C104.017 108.34 103.871 108.76 103.849 109.212C103.849 109.227 103.849 109.243 103.849 109.261C103.849 109.279 103.849 109.296 103.849 109.31C103.849 109.719 103.954 110.104 104.164 110.465C104.374 110.826 104.685 111.068 105.098 111.193C105.199 111.222 105.295 111.244 105.385 111.258C105.476 111.273 105.561 111.28 105.64 111.28C105.959 111.28 106.248 111.198 106.509 111.034C106.769 110.87 107.019 110.667 107.258 110.426V112.506C107.156 112.55 107.057 112.589 106.96 112.626C106.862 112.662 106.762 112.695 106.661 112.724C106.466 112.775 106.268 112.817 106.069 112.85C105.87 112.883 105.669 112.899 105.467 112.899C105.424 112.899 105.381 112.899 105.342 112.899C105.302 112.899 105.26 112.899 105.217 112.899C105.174 112.899 105.132 112.897 105.092 112.894C105.052 112.89 105.011 112.885 104.967 112.878C104.056 112.79 103.326 112.395 102.78 111.69C102.233 110.986 101.96 110.182 101.96 109.278C101.96 108.38 102.233 107.58 102.78 106.876C103.326 106.172 104.056 105.765 104.967 105.656C105.003 105.656 105.04 105.654 105.076 105.651C105.112 105.647 105.148 105.645 105.184 105.645C105.213 105.645 105.246 105.643 105.282 105.64C105.318 105.636 105.355 105.634 105.391 105.634C105.709 105.634 106.026 105.672 106.341 105.749C106.655 105.826 106.961 105.93 107.258 106.061ZM112.256 112.768V107.45H110.715V105.798H115.686V107.45H114.145V112.768H112.256ZM122.877 106.258C123.391 106.593 123.791 107.04 124.077 107.598C124.363 108.156 124.505 108.738 124.505 109.344C124.505 109.416 124.504 109.491 124.5 109.568C124.497 109.644 124.487 109.719 124.473 109.792C124.451 109.945 124.421 110.097 124.381 110.246C124.341 110.395 124.292 110.543 124.234 110.689C123.938 111.397 123.467 111.946 122.823 112.336C122.179 112.726 121.502 112.921 120.793 112.921C120.742 112.921 120.693 112.92 120.646 112.916C120.599 112.912 120.551 112.91 120.5 112.91C120.254 112.889 120.009 112.845 119.767 112.779C119.524 112.713 119.291 112.622 119.067 112.506C118.458 112.185 117.981 111.727 117.634 111.133C117.286 110.538 117.113 109.92 117.113 109.278C117.113 109.183 117.116 109.088 117.124 108.993C117.131 108.898 117.145 108.8 117.167 108.698C117.196 108.508 117.243 108.317 117.308 108.124C117.373 107.93 117.453 107.746 117.547 107.571C117.887 106.951 118.352 106.476 118.942 106.148C119.531 105.82 120.152 105.656 120.803 105.656C120.883 105.656 120.965 105.658 121.048 105.661C121.131 105.665 121.213 105.674 121.292 105.689C121.567 105.725 121.84 105.791 122.112 105.886C122.383 105.98 122.638 106.104 122.877 106.258ZM122.497 110.077C122.519 110.004 122.539 109.927 122.557 109.846C122.575 109.766 122.588 109.686 122.595 109.606C122.602 109.555 122.608 109.504 122.611 109.453C122.615 109.402 122.616 109.354 122.616 109.31C122.616 109.267 122.615 109.223 122.611 109.179C122.608 109.136 122.606 109.092 122.606 109.048C122.57 108.734 122.475 108.432 122.324 108.14C122.172 107.848 121.958 107.621 121.683 107.461C121.611 107.425 121.538 107.392 121.466 107.363C121.394 107.334 121.324 107.308 121.259 107.286C121.187 107.272 121.115 107.259 121.042 107.248C120.97 107.237 120.898 107.231 120.825 107.231C120.456 107.231 120.116 107.348 119.805 107.582C119.494 107.815 119.277 108.125 119.153 108.512C119.132 108.585 119.11 108.665 119.088 108.753C119.067 108.84 119.048 108.927 119.034 109.015C119.027 109.066 119.022 109.115 119.018 109.162C119.014 109.21 119.012 109.259 119.012 109.31C119.012 109.34 119.012 109.367 119.012 109.393C119.012 109.418 119.012 109.445 119.012 109.475C119.041 109.861 119.161 110.228 119.37 110.574C119.581 110.921 119.877 111.149 120.261 111.258C120.347 111.287 120.435 111.309 120.521 111.324C120.608 111.338 120.699 111.346 120.793 111.346C121.169 111.346 121.513 111.231 121.824 111.001C122.135 110.771 122.36 110.463 122.497 110.077ZM128.863 107.319V112.768H126.985V105.798H133.259V112.768H131.381V107.319H128.863ZM141.677 106.258C142.191 106.593 142.591 107.04 142.877 107.598C143.163 108.156 143.305 108.738 143.305 109.344C143.305 109.416 143.304 109.491 143.3 109.568C143.297 109.644 143.288 109.719 143.273 109.792C143.252 109.945 143.221 110.097 143.181 110.246C143.141 110.395 143.092 110.543 143.034 110.689C142.738 111.397 142.267 111.946 141.623 112.336C140.979 112.726 140.302 112.921 139.593 112.921C139.543 112.921 139.493 112.92 139.447 112.916C139.4 112.912 139.351 112.91 139.3 112.91C139.054 112.889 138.81 112.845 138.567 112.779C138.325 112.713 138.091 112.622 137.867 112.506C137.259 112.185 136.781 111.727 136.434 111.133C136.086 110.538 135.913 109.92 135.913 109.278C135.913 109.183 135.917 109.088 135.924 108.993C135.931 108.898 135.945 108.8 135.967 108.698C135.996 108.508 136.043 108.317 136.108 108.124C136.174 107.93 136.253 107.746 136.347 107.571C136.687 106.951 137.152 106.476 137.742 106.148C138.332 105.82 138.952 105.656 139.604 105.656C139.684 105.656 139.765 105.658 139.848 105.661C139.931 105.665 140.013 105.674 140.092 105.689C140.367 105.725 140.641 105.791 140.912 105.886C141.183 105.98 141.439 106.104 141.677 106.258ZM141.298 110.077C141.319 110.004 141.339 109.927 141.357 109.846C141.375 109.766 141.388 109.686 141.395 109.606C141.402 109.555 141.408 109.504 141.411 109.453C141.415 109.402 141.417 109.354 141.417 109.31C141.417 109.267 141.415 109.223 141.411 109.179C141.408 109.136 141.406 109.092 141.406 109.048C141.37 108.734 141.276 108.432 141.124 108.14C140.972 107.848 140.758 107.621 140.483 107.461C140.411 107.425 140.339 107.392 140.266 107.363C140.194 107.334 140.125 107.308 140.06 107.286C139.987 107.272 139.915 107.259 139.843 107.248C139.77 107.237 139.698 107.231 139.626 107.231C139.256 107.231 138.916 107.348 138.605 107.582C138.294 107.815 138.077 108.125 137.954 108.512C137.932 108.585 137.91 108.665 137.889 108.753C137.867 108.84 137.849 108.927 137.834 109.015C137.827 109.066 137.822 109.115 137.818 109.162C137.814 109.21 137.813 109.259 137.813 109.31C137.813 109.34 137.813 109.367 137.813 109.393C137.813 109.418 137.813 109.445 137.813 109.475C137.841 109.861 137.961 110.228 138.171 110.574C138.381 110.921 138.677 111.149 139.061 111.258C139.148 111.287 139.235 111.309 139.322 111.324C139.408 111.338 139.499 111.346 139.593 111.346C139.969 111.346 140.313 111.231 140.624 111.001C140.936 110.771 141.16 110.463 141.298 110.077ZM147.261 111.455C147.009 112.024 146.699 112.385 146.333 112.538C145.968 112.692 145.571 112.768 145.145 112.768C145.115 112.768 145.085 112.766 145.052 112.763C145.019 112.759 144.989 112.757 144.96 112.757C144.924 112.757 144.889 112.755 144.857 112.752C144.824 112.748 144.793 112.747 144.765 112.747V111.028C144.982 111.014 145.148 110.983 145.264 110.936C145.38 110.888 145.485 110.777 145.579 110.602C145.586 110.587 145.593 110.572 145.601 110.558C145.608 110.543 145.615 110.529 145.622 110.514C145.774 110.157 145.885 109.599 145.954 108.84C146.022 108.081 146.06 107.067 146.067 105.798H151.408V112.768H149.53V107.319H147.891C147.855 108.238 147.784 109.031 147.679 109.699C147.575 110.367 147.46 110.879 147.338 111.237C147.323 111.28 147.31 111.32 147.3 111.356C147.289 111.393 147.276 111.426 147.261 111.455ZM156.678 105.798V108.588H157.123C157.246 108.588 157.377 108.59 157.514 108.594C157.652 108.598 157.793 108.603 157.937 108.611C158.111 108.625 158.283 108.645 158.453 108.67C158.623 108.696 158.777 108.73 158.914 108.774C159.327 108.927 159.669 109.175 159.94 109.518C160.212 109.861 160.347 110.281 160.347 110.777V110.941C160.311 111.597 160.059 112.046 159.593 112.287C159.126 112.527 158.614 112.674 158.057 112.724C157.854 112.747 157.652 112.759 157.449 112.763C157.246 112.766 157.055 112.768 156.874 112.768H154.919V105.798H156.678ZM158.545 110.711V110.569C158.545 110.284 158.437 110.093 158.22 109.994C158.002 109.896 157.767 109.839 157.514 109.825C157.485 109.825 157.458 109.825 157.433 109.825C157.407 109.825 157.38 109.825 157.351 109.825H156.678V111.335C156.722 111.335 156.768 111.335 156.819 111.335C156.87 111.335 156.924 111.335 156.982 111.335C157.011 111.342 157.04 111.346 157.069 111.346C157.098 111.346 157.127 111.346 157.156 111.346C157.185 111.346 157.214 111.346 157.243 111.346C157.271 111.346 157.3 111.346 157.329 111.346C157.351 111.346 157.375 111.346 157.4 111.346C157.425 111.346 157.452 111.346 157.481 111.346C157.735 111.338 157.97 111.293 158.187 111.209C158.404 111.125 158.523 110.959 158.545 110.711Z" fill="#EBD7AE"/>
</svg>
