<svg width="24" height="14" viewBox="0 0 24 14" fill="none" xmlns="http://www.w3.org/2000/svg">
<path d="M22.5424 0.918931C22.7036 0.388708 22.5424 -0.00012207 21.7802 -0.00012207H19.2553C18.6129 -0.00012207 18.3193 0.336256 18.1581 0.705702C18.1581 0.705702 16.8743 3.80608 15.0552 5.81637C14.468 6.40132 14.1997 6.58605 13.8796 6.58605C13.7196 6.58605 13.487 6.40132 13.487 5.8711V0.918931C13.487 0.282664 13.3016 -0.00012207 12.7663 -0.00012207H8.79868C8.39801 -0.00012207 8.15622 0.294066 8.15622 0.574571C8.15622 1.17663 9.06579 1.31574 9.15905 3.01246V6.69323C9.15905 7.4994 9.01283 7.64649 8.69045 7.64649C7.83499 7.64649 5.75334 4.53471 4.51793 0.972524C4.2773 0.280383 4.03436 0.00101866 3.3896 0.00101866H0.865821C0.14392 0.00101866 0 0.337397 0 0.706842C0 1.37048 0.855459 4.65444 3.98485 8.9977C6.07111 11.9635 9.00823 13.5713 11.684 13.5713C13.2878 13.5713 13.4859 13.2144 13.4859 12.5987V10.3569C13.4859 9.6431 13.639 9.49942 14.1467 9.49942C14.5198 9.49942 15.1622 9.68643 16.6602 11.1152C18.3711 12.8096 18.6543 13.5702 19.6157 13.5702H22.1395C22.8602 13.5702 23.2206 13.2133 23.0133 12.5086C22.7865 11.8073 21.9691 10.7868 20.8845 9.57924C20.295 8.89052 19.4142 8.14935 19.1459 7.77876C18.7717 7.30099 18.88 7.09004 19.1459 6.66586C19.1471 6.66701 22.2224 2.37733 22.5424 0.918931Z" fill="#EBD7AE"/>
</svg>
