<svg width="18" height="17" viewBox="0 0 18 17" fill="none" xmlns="http://www.w3.org/2000/svg">
<path d="M8.54558 4.12719C6.13877 4.12719 4.19636 6.0696 4.19636 8.47641C4.19636 10.8832 6.13877 12.8256 8.54558 12.8256C10.9524 12.8256 12.8948 10.8832 12.8948 8.47641C12.8948 6.0696 10.9524 4.12719 8.54558 4.12719ZM8.54558 11.3031C6.98911 11.3031 5.71891 10.0329 5.71891 8.47641C5.71891 6.91994 6.98911 5.64974 8.54558 5.64974C10.1021 5.64974 11.3723 6.91994 11.3723 8.47641C11.3723 10.0329 10.1021 11.3031 8.54558 11.3031ZM13.0729 2.93545C12.511 2.93545 12.0572 3.38925 12.0572 3.95119C12.0572 4.51313 12.511 4.96693 13.0729 4.96693C13.6349 4.96693 14.0887 4.51525 14.0887 3.95119C14.0888 3.81775 14.0627 3.6856 14.0117 3.56228C13.9607 3.43897 13.8859 3.32693 13.7915 3.23258C13.6972 3.13823 13.5851 3.06342 13.4618 3.01243C13.3385 2.96144 13.2064 2.93528 13.0729 2.93545ZM17.0235 8.47641C17.0235 7.30588 17.0341 6.14594 16.9683 4.97753C16.9026 3.62038 16.593 2.41592 15.6006 1.42351C14.6061 0.428979 13.4037 0.121501 12.0466 0.0557646C10.876 -0.00997197 9.71612 0.000630741 8.5477 0.000630741C7.37716 0.000630741 6.21723 -0.00997197 5.04882 0.0557646C3.69167 0.121501 2.48721 0.431099 1.4948 1.42351C0.500268 2.41804 0.19279 3.62038 0.127054 4.97753C0.0613171 6.14806 0.0719198 7.308 0.0719198 8.47641C0.0719198 9.64483 0.0613171 10.8069 0.127054 11.9753C0.19279 13.3324 0.502389 14.5369 1.4948 15.5293C2.48933 16.5238 3.69167 16.8313 5.04882 16.8971C6.21935 16.9628 7.37929 16.9522 8.5477 16.9522C9.71824 16.9522 10.8782 16.9628 12.0466 16.8971C13.4037 16.8313 14.6082 16.5217 15.6006 15.5293C16.5951 14.5348 16.9026 13.3324 16.9683 11.9753C17.0362 10.8069 17.0235 9.64695 17.0235 8.47641ZM15.1574 13.4766C15.0026 13.8626 14.816 14.151 14.517 14.4478C14.218 14.7468 13.9317 14.9334 13.5458 15.0882C12.4304 15.5314 9.78185 15.4318 8.54558 15.4318C7.30931 15.4318 4.65864 15.5314 3.54324 15.0904C3.1573 14.9356 2.86891 14.749 2.57203 14.45C2.27304 14.151 2.08643 13.8647 1.93163 13.4788C1.49056 12.3612 1.59022 9.71268 1.59022 8.47641C1.59022 7.24014 1.49056 4.58947 1.93163 3.47407C2.08643 3.08813 2.27304 2.79974 2.57203 2.50286C2.87103 2.20599 3.1573 2.01726 3.54324 1.86246C4.65864 1.42139 7.30931 1.52105 8.54558 1.52105C9.78185 1.52105 12.4325 1.42139 13.5479 1.86246C13.9339 2.01726 14.2223 2.20387 14.5191 2.50286C14.8181 2.80186 15.0047 3.08813 15.1595 3.47407C15.6006 4.58947 15.5009 7.24014 15.5009 8.47641C15.5009 9.71268 15.6006 12.3612 15.1574 13.4766Z" fill="#EBD7AE"/>
</svg>
